<svg xmlns="http://www.w3.org/2000/svg" viewBox="0 0 240 48" fill="none" role="img" aria-label="Recruitimate">
  <rect x="0" y="0" width="48" height="48" rx="11" fill="#FFFFFF"/>
  <rect x="5" y="10" width="15" height="20" rx="4" fill="#162F4A"/>
  <circle cx="12.5" cy="16.5" r="3.2" fill="#F0F7FC"/>
  <path d="M8 27c1.2-2.8 2.8-4 4.5-4s3.3 1.2 4.5 4" stroke="#F0F7FC" stroke-width="1.8" stroke-linecap="round"/>
  <circle cx="22.5" cy="24" r="1.6" fill="#0B6B82"/>
  <path d="M21 24h3.5" stroke="#0B6B82" stroke-width="1.6" stroke-linecap="round"/>
  <circle cx="25.5" cy="24" r="1.6" fill="#0B6B82"/>
  <rect x="28" y="28" width="4" height="8" rx="1.2" fill="#0B6B82"/>
  <rect x="33.5" y="24" width="4" height="12" rx="1.2" fill="#0B6B82"/>
  <rect x="39" y="18" width="4" height="18" rx="1.2" fill="#14B8D4"/>
  <path d="M41 14v4M41 14l-1.8 1.8M41 14l1.8 1.8" stroke="#14B8D4" stroke-width="1.6" stroke-linecap="round" stroke-linejoin="round"/>
  <path d="M22 12h5M23 9h4M24 6.5h2.5" stroke="#5548A0" stroke-width="1.4" stroke-linecap="round"/>
  <text x="58" y="33" font-family="ui-sans-serif, system-ui, sans-serif" font-size="22" font-weight="700" letter-spacing="-0.03em">
    <tspan fill="#162F4A">Recruit</tspan><tspan fill="#0B6B82">imate</tspan>
  </text>
</svg>
