<svg xmlns="http://www.w3.org/2000/svg" viewBox="0 0 64 64" fill="none" role="img" aria-label="Recruitimate">
  <rect width="64" height="64" rx="14" fill="#162F4A"/>
  <!-- Person profile -->
  <rect x="8" y="12" width="22" height="28" rx="6" fill="#0B6B82"/>
  <circle cx="19" cy="22" r="4.5" fill="#F0F7FC"/>
  <path d="M12 36c1.5-4 4-6 7-6s5.5 2 7 6" stroke="#F0F7FC" stroke-width="2.2" stroke-linecap="round"/>
  <!-- Connection bridge -->
  <path d="M30 34h6" stroke="#F0F7FC" stroke-width="2" stroke-linecap="round"/>
  <circle cx="30" cy="34" r="2.2" fill="#F0F7FC"/>
  <circle cx="36" cy="34" r="2.2" fill="#F0F7FC"/>
  <!-- Growth bars + arrow -->
  <rect x="38" y="38" width="5" height="10" rx="1.5" fill="#0B6B82"/>
  <rect x="45" y="32" width="5" height="16" rx="1.5" fill="#0B6B82"/>
  <path d="M52 26v14h5" stroke="#0B6B82" stroke-width="2.5" stroke-linecap="round" stroke-linejoin="round"/>
  <path d="M52 26l3 3-3 3" stroke="#0B6B82" stroke-width="2.5" stroke-linecap="round" stroke-linejoin="round"/>
  <!-- Intelligence signal lines -->
  <path d="M32 18h8M34 14h6M36 10h4" stroke="#5548A0" stroke-width="1.8" stroke-linecap="round" opacity="0.9"/>
</svg>
